<?xml version="1.0" standalone="no"?>
<!DOCTYPE svg PUBLIC "-//W3C//DTD SVG 20010904//EN"
 "http://www.w3.org/TR/2001/REC-SVG-20010904/DTD/svg10.dtd">
<svg version="1.0" xmlns="http://www.w3.org/2000/svg"
 width="115.000000pt" height="115.000000pt" viewBox="0 0 115.000000 115.000000"
 preserveAspectRatio="xMidYMid meet">
<metadata>
Created by potrace 1.14, written by Peter Selinger 2001-2017
</metadata>
<g transform="translate(0.000000,115.000000) scale(0.100000,-0.100000)"
fill="#000000" stroke="none">
<path d="M129 1124 c-7 -9 -15 -47 -17 -85 -4 -62 -2 -70 21 -93 l26 -26 276
0 c151 0 275 -2 275 -5 0 -3 -32 -43 -70 -88 -79 -92 -91 -118 -65 -147 16
-17 31 -20 116 -20 l98 0 120 145 121 146 0 84 c0 73 -3 86 -19 95 -13 6 -171
10 -444 10 -379 0 -426 -2 -438 -16z"/>
<path d="M231 335 l-121 -146 0 -82 c0 -51 5 -88 12 -95 16 -16 859 -17 889
-2 16 9 19 22 19 94 0 65 -4 87 -17 97 -12 11 -80 15 -301 19 l-285 5 72 85
c81 96 92 122 66 150 -16 17 -31 20 -116 20 l-98 0 -120 -145z"/>
</g>
</svg>
